<?xml version="1.0" encoding="utf-8"?>
<svg version="1.1" xmlns="http://www.w3.org/2000/svg" width="32" height="32">
	<path d="M12,9v2h12V9H12z M12,16v2h12v-2H12z M12,23v2h12v-2H12z
			M7.035,12.434c0.406,0,0.667-0.055,0.781-0.166s0.172-0.321,0.172-0.631V8.555c0-0.198-0.023-0.338-0.068-0.422
		S7.791,8.008,7.668,8.008c-0.065,0-0.166,0.022-0.301,0.066C7.281,8.101,7.164,8.143,7.016,8.2V7.997l2.02-0.871h0.141v4.559
		c0,0.292,0.047,0.49,0.141,0.594s0.333,0.156,0.719,0.156v0.191h-3V12.434z
			M6.637,19.566c0.852-0.922,1.406-1.564,1.664-1.926c0.396-0.547,0.594-1.031,0.594-1.453c0-0.25-0.076-0.484-0.229-0.701
		S8.277,15.16,7.957,15.16c-0.281,0-0.518,0.098-0.711,0.293c-0.104,0.107-0.197,0.25-0.277,0.43H6.75
		c0.177-0.555,0.422-0.965,0.734-1.232s0.664-0.4,1.055-0.4c0.37,0,0.706,0.128,1.008,0.385S10,15.268,10,15.766
		c0,0.26-0.071,0.527-0.213,0.801s-0.381,0.57-0.717,0.891l-1.219,1.164v0.066h1.137c0.396,0,0.654-0.033,0.775-0.098
		s0.243-0.24,0.365-0.523h0.191L9.961,19.75H6.637V19.566z
			M7.896,25.989c0.256,0.262,0.468,0.393,0.635,0.393c0.287,0,0.492-0.097,0.615-0.291s0.186-0.415,0.186-0.662
		c0-0.456-0.191-0.828-0.574-1.117c-0.219-0.161-0.565-0.327-1.039-0.496v-0.129c0.323-0.112,0.553-0.22,0.691-0.324
		c0.237-0.18,0.355-0.423,0.355-0.73c0-0.266-0.08-0.468-0.24-0.607s-0.364-0.209-0.611-0.209c-0.229,0-0.436,0.083-0.621,0.25
		c-0.104,0.094-0.215,0.233-0.332,0.418L6.793,22.39c0.125-0.266,0.303-0.503,0.535-0.711c0.37-0.333,0.802-0.5,1.297-0.5
		c0.341,0,0.638,0.097,0.891,0.289s0.392,0.444,0.418,0.754c0,0.222-0.049,0.419-0.146,0.592s-0.256,0.315-0.475,0.428V23.3
		c0.32,0.128,0.555,0.319,0.703,0.576s0.223,0.526,0.223,0.811c0,0.573-0.221,1.062-0.664,1.465
		c-0.461,0.425-1.044,0.637-1.75,0.637c-0.344,0-0.63-0.065-0.859-0.195s-0.344-0.302-0.344-0.516c0-0.114,0.041-0.224,0.123-0.326
		s0.217-0.154,0.404-0.154C7.391,25.597,7.64,25.728,7.896,25.989z" />
</svg>

