<svg version="1.1" xmlns="http://www.w3.org/2000/svg" width="32" height="32">
	<path d="M16.213,18.438l-1.853,1.854c0.041,0.767-0.223,1.546-0.809,2.134c-1.099,1.095-2.878,1.095-3.977-0.001
		c-1.096-1.099-1.095-2.877,0-3.976c0.587-0.586,1.368-0.85,2.135-0.809l1.852-1.853c-1.847-0.792-4.069-0.439-5.579,1.069
		c-1.976,1.979-1.977,5.181,0,7.159c1.979,1.978,5.182,1.977,7.159,0l0.001,0.002C16.649,22.508,17.005,20.286,16.213,18.438z
		 M14.789,14.562l1.851-1.852c-0.04-0.767,0.223-1.546,0.809-2.136c1.101-1.094,2.877-1.096,3.978,0.001
		c1.096,1.099,1.096,2.877,0,3.976c-0.588,0.587-1.367,0.849-2.135,0.809l-1.853,1.851c1.848,0.793,4.068,0.438,5.58-1.068
		c1.975-1.979,1.975-5.182,0-7.16c-1.98-1.977-5.184-1.978-7.16,0C14.35,10.492,13.996,12.713,14.789,14.562z M17.489,12.92
		l-5.569,5.569c-0.438,0.438-0.44,1.151,0,1.591c0.439,0.438,1.152,0.438,1.591-0.001l5.568-5.568c0.438-0.439,0.438-1.151,0-1.591
		C18.641,12.481,17.928,12.481,17.489,12.92z" />
</svg>

