<?xml version="1.0" encoding="utf-8"?>
<svg version="1.1" xmlns="http://www.w3.org/2000/svg" width="32" height="32">
	<path d="M11.282,23.441c0.562-0.047,0.949-0.148,1.16-0.305
		c0.328-0.234,0.598-0.723,0.809-1.465l2.94-10.617c0.109-0.43,0.184-0.732,0.223-0.908s0.059-0.35,0.059-0.521
		c0-0.383-0.125-0.646-0.375-0.791s-0.691-0.236-1.324-0.275V8.172h5.946v0.387c-0.633,0.086-1.068,0.221-1.307,0.404
		s-0.459,0.639-0.662,1.365l-2.94,10.617c-0.102,0.375-0.174,0.684-0.217,0.926s-0.064,0.426-0.064,0.551
		c0,0.391,0.139,0.652,0.416,0.785s0.686,0.211,1.225,0.234v0.387h-5.888V23.441z"/>
</svg>
