<?xml version="1.0" encoding="utf-8"?>
<svg version="1.1" xmlns="http://www.w3.org/2000/svg" width="32" height="32">
	<path d="M11.16,19.123c0.405,1.078,0.882,1.938,1.428,2.578c0.951,1.117,2.133,1.676,3.545,1.676c0.765,0,1.426-0.242,1.983-0.727
		s0.837-1.16,0.837-2.027c0-0.781-0.28-1.461-0.842-2.039c-0.367-0.367-1.139-0.918-2.316-1.652l-2.047-1.277
		c-0.616-0.391-1.107-0.785-1.475-1.184c-0.68-0.758-1.02-1.594-1.02-2.508c0-1.211,0.402-2.219,1.207-3.023
		s1.871-1.207,3.199-1.207c0.547,0,1.205,0.135,1.975,0.404s1.209,0.404,1.318,0.404c0.297,0,0.502-0.07,0.615-0.211
		s0.201-0.34,0.264-0.598h0.492l0.527,5.109h-0.574c-0.391-1.539-1.018-2.613-1.881-3.223s-1.717-0.914-2.561-0.914
		c-0.656,0-1.229,0.193-1.717,0.58s-0.732,0.924-0.732,1.611c0,0.617,0.188,1.145,0.562,1.582c0.374,0.445,0.955,0.91,1.744,1.395
		l2.107,1.301c1.319,0.812,2.249,1.559,2.791,2.238c0.533,0.688,0.8,1.5,0.8,2.438c0,1.258-0.475,2.309-1.424,3.152
		s-2.162,1.266-3.639,1.266c-0.742,0-1.518-0.141-2.326-0.422s-1.271-0.422-1.389-0.422c-0.281,0-0.471,0.086-0.568,0.258
		s-0.162,0.355-0.193,0.551h-0.527l-0.715-5.109H11.16zM8,16v1h16v-1z"/>
</svg>
