<?xml version="1.0" encoding="utf-8"?>
<svg version="1.1" xmlns="http://www.w3.org/2000/svg" width="32" height="32">
	<path d="M14.518,7.891v0.445c-0.922,0.062-1.52,0.217-1.793,0.463s-0.41,0.811-0.41,1.693v7.676c0,1.258,0.172,2.238,0.516,2.941
		c0.641,1.281,1.855,1.922,3.645,1.922c1.96,0,3.277-0.656,3.949-1.969c0.375-0.734,0.562-1.867,0.562-3.398v-6.246
		c0-1.305-0.156-2.123-0.469-2.455s-0.906-0.541-1.781-0.627V7.891h5.555v0.445c-0.93,0.102-1.537,0.326-1.822,0.674
		s-0.428,1.15-0.428,2.408v6.246c0,1.656-0.254,2.949-0.762,3.879c-0.938,1.711-2.719,2.566-5.343,2.566
		c-2.594,0-4.359-0.844-5.297-2.531c-0.508-0.906-0.762-2.102-0.762-3.586v-7.5c0-0.875-0.135-1.436-0.404-1.682
		S8.615,8.406,7.709,8.336V7.891H14.518zM8,25v1h16v-1z"/>
</svg>
