<?xml version="1.0" encoding="utf-8"?>
<svg version="1.1" xmlns="http://www.w3.org/2000/svg" width="32" height="32">
	<path d="M15.602,10.615v0.328c-0.297,0.008-0.549,0.049-0.756,0.123s-0.311,0.229-0.311,0.463c0,0.148,0.207,0.566,0.621,1.254
		c0.224,0.354,0.507,0.79,0.85,1.307c0.453-0.625,0.791-1.115,1.014-1.471c0.383-0.578,0.574-0.953,0.574-1.125
		c0-0.203-0.082-0.34-0.246-0.41s-0.395-0.117-0.691-0.141v-0.328h3.773v0.328c-0.398,0.031-0.77,0.139-1.113,0.322
		s-0.621,0.428-0.832,0.732l-1.982,2.855l3.072,4.727c0.398,0.609,0.736,1.004,1.014,1.184s0.596,0.277,0.955,0.293v0.328h-4.84
		v-0.328l0.34-0.023c0.18-0.016,0.33-0.07,0.451-0.164s0.182-0.211,0.182-0.352c0-0.148-0.148-0.477-0.445-0.984
		c-0.139-0.254-0.346-0.599-0.623-1.036c-0.131-0.214-0.325-0.513-0.582-0.894c-0.258-0.381-0.476-0.706-0.652-0.977l-1.916,2.988
		c-0.227,0.352-0.367,0.586-0.422,0.703s-0.082,0.215-0.082,0.293c0,0.148,0.061,0.246,0.182,0.293s0.385,0.098,0.791,0.152v0.328
		h-3.469v-0.328c0.422-0.086,0.734-0.195,0.938-0.328s0.473-0.441,0.809-0.926l2.662-3.97l-2.182-3.413
		c-0.453-0.68-0.766-1.082-0.938-1.207s-0.547-0.215-1.125-0.27v-0.328H15.602z

		M21.543,25.291c1.43-1.484,2.4-2.572,2.912-3.268s0.768-1.372,0.768-2.031c0-0.578-0.156-1.018-0.469-1.32
		s-0.686-0.453-1.119-0.453c-0.535,0-0.969,0.195-1.301,0.585c-0.184,0.215-0.359,0.544-0.527,0.989l-0.252-0.053
		c0.195-0.898,0.526-1.521,0.993-1.871s0.968-0.523,1.503-0.523c0.66,0,1.194,0.207,1.603,0.623s0.612,0.924,0.612,1.525
		c0,0.64-0.221,1.256-0.662,1.85s-1.401,1.648-2.878,3.168h2.69c0.375,0,0.639-0.045,0.791-0.135s0.324-0.309,0.516-0.656
		l0.152,0.07l-0.65,1.635h-4.682V25.291z" />
</svg>
